<svg height="414pt" viewBox="-11 0 414 414.18581" width="414pt" xmlns="http://www.w3.org/2000/svg"><path d="m44.269531 39.488281c1.746094 0 3.492188-.667969 4.824219-2l12.457031-12.453125c2.664063-2.667968 2.664063-6.988281 0-9.65625-2.667969-2.664062-6.988281-2.664062-9.65625 0l-12.453125 12.457032c-2.664062 2.664062-2.664062 6.984374 0 9.652343 1.335938 1.332031 3.082032 2 4.828125 2zm0 0"/><path d="m15.214844 68.539062c1.746094 0 3.492187-.667968 4.828125-2l12.453125-12.453124c2.664062-2.664063 2.664062-6.988282 0-9.652344-2.667969-2.667969-6.988282-2.667969-9.652344 0l-12.457031 12.453125c-2.664063 2.664062-2.664063 6.988281 0 9.652343 1.335937 1.335938 3.082031 2 4.828125 2zm0 0"/><path d="m22.84375 37.488281c1.332031 1.332031 3.078125 2 4.824219 2 1.746093 0 3.492187-.667969 4.828125-2 2.664062-2.667969 2.664062-6.988281 0-9.652343l-12.453125-12.457032c-2.667969-2.664062-6.988281-2.664062-9.65625 0-2.664063 2.667969-2.664063 6.988282 0 9.65625zm0 0"/><path d="m51.894531 66.542969c1.332031 1.332031 3.082031 2 4.828125 2s3.492188-.667969 4.824219-2c2.667969-2.667969 2.667969-6.988281 0-9.65625l-12.453125-12.453125c-2.664062-2.664063-6.988281-2.664063-9.652344 0-2.667968 2.667968-2.667968 6.988281 0 9.652344zm0 0"/><path d="m41.316406 387.015625c-1.636718-5.382813-5.261718-9.808594-10.222656-12.460937-4.964844-2.660157-10.65625-3.226563-16.039062-1.589844-5.386719 1.636718-9.8125 5.261718-12.464844 10.222656-2.6484378 4.957031-3.214844 10.660156-1.582032 16.039062 1.632813 5.386719 5.261719 9.8125 10.21875 12.464844 3.101563 1.65625 6.488282 2.496094 9.910157 2.496094 2.050781 0 4.113281-.300781 6.132812-.914062 11.105469-3.367188 17.40625-15.148438 14.046875-26.253907 0-.003906 0-.003906 0-.003906zm-18.007812 13.191406c-1.886719.566407-3.886719.378907-5.640625-.554687-1.742188-.933594-3.019531-2.492188-3.59375-4.386719-.570313-1.890625-.375-3.890625.554687-5.640625.933594-1.738281 2.492188-3.019531 4.386719-3.589844.703125-.214844 1.433594-.320312 2.152344-.320312 1.199219 0 2.390625.292968 3.488281.878906 1.738281.933594 3.019531 2.488281 3.589844 4.378906 1.183594 3.90625-1.039063 8.054688-4.9375 9.234375zm0 0"/><path d="m383.390625 21.058594c0-11.613282-9.449219-21.058594-21.0625-21.058594s-21.058594 9.445312-21.058594 21.058594c0 11.609375 9.445313 21.054687 21.058594 21.054687s21.0625-9.445312 21.0625-21.054687zm-28.46875 0c0-4.085938 3.320313-7.40625 7.40625-7.40625 4.089844 0 7.40625 3.320312 7.40625 7.40625 0 4.082031-3.316406 7.402344-7.40625 7.402344-4.085937 0-7.40625-3.320313-7.40625-7.402344zm0 0"/><path d="m273.582031 37.085938c5.082031 0 9.203125-4.121094 9.203125-9.203126 0-5.082031-4.121094-9.203124-9.203125-9.203124s-9.199219 4.121093-9.199219 9.203124c-.003906 5.082032 4.117188 9.203126 9.199219 9.203126zm0 0"/><path d="m14.167969 132.660156c5.082031 0 9.203125-4.121094 9.203125-9.203125s-4.121094-9.203125-9.203125-9.203125-9.203125 4.121094-9.203125 9.203125 4.121094 9.203125 9.203125 9.203125zm0 0"/><path d="m347.082031 218.367188c0-47.039063-30.6875-90.015626-80.375-113.019532-1.625-14.0625-11.667969-26.300781-27.027343-32.546875-10.914063-4.433593-16.574219-13.894531-13.773438-23.007812l5.234375-17.03125c.199219-.652344.300781-1.328125.300781-2.007813v-19.246094c0-2.886718-1.8125-5.460937-4.527344-6.429687-2.734374-.992187-5.757812-.132813-7.578124 2.101563l-11.734376 14.320312c-6.9375 8.464844-16.890624 14.859375-28.777343 18.480469-19.09375 5.824219-30.792969 22.382812-27.816407 39.382812.808594 4.589844-.605468 9.277344-3.957031 13.183594l-.828125.957031c-67.867187 15.660156-115.058594 66.734375-115.058594 124.859375 0 22.320313 7 44.316407 20.238282 63.613281.390625.570313.871094 1.035157 1.378906 1.445313 2.070312 14.640625 8.636719 28.652344 19.328125 41.203125l-7.859375 7.4375c-4.59375 4.355469-7.078125 10.46875-6.820312 16.785156.253906 6.316406 3.230468 12.207032 8.160156 16.167969l25.152344 20.203125c4.921874 3.949219 11.308593 5.605469 17.546874 4.476562 6.226563-1.105468 11.660157-4.859374 14.921876-10.277343l9.839843-16.398438c5.132813 1.632813 10.4375 3.050781 15.886719 4.238281l-.980469 7.140626c-.851562 6.265624 1.03125 12.59375 5.195313 17.359374 4.152344 4.761719 10.164062 7.496094 16.484375 7.496094h32.261719c6.316406 0 12.332031-2.734375 16.484374-7.496094 4.160157-4.765624 6.046876-11.09375 5.195313-17.359374l-.789063-5.753907c5.746094-1.058593 11.515626-2.417969 17.246094-4.078125l5.054688 11.40625c2.550781 5.78125 7.480468 10.171875 13.519531 12.046875 6.027344 1.867188 12.59375 1.046875 17.980469-2.273437l27.445312-16.933594c5.378906-3.320312 9.0625-8.792969 10.101563-15.035156 1.039062-6.242188-.675781-12.613282-4.6875-17.5l-6.660157-8.085938c12.476563-13.265625 20.132813-28.25 22.53125-44.046875 14.234376-19.859375 21.761719-42.582031 21.761719-65.777343zm-302.265625 0c0-52.292969 43.8125-98.359376 106.554688-112.019532 1.445312-.324218 2.746094-1.097656 3.710937-2.214844l2.3125-2.679687c6.082031-7.078125 8.585938-15.765625 7.0625-24.453125-1.800781-10.261719 5.746094-20.113281 18.351563-23.960938 14.035156-4.28125 25.953125-11.84375 34.554687-21.933593l-4.507812 14.675781c-4.886719 15.890625 4.234375 32.570312 21.679687 39.671875 11.566406 4.699219 18.753906 13.875 18.753906 24.421875 0 2.71875 1.613282 5.179688 4.113282 6.265625 46.894531 20.324219 76.027344 59.5 76.027344 102.226563 0 13.558593-2.972657 26.960937-8.671876 39.589843-9.324218-54.542969-64.957031-125.195312-132.136718-125.195312-69.449219 0-129.007813 71.652343-139.054688 125.402343-5.753906-12.6875-8.75-26.1875-8.75-39.796874zm244.074219 104.425781c-2.609375 2.46875-2.863281 6.527343-.582031 9.300781l10.59375 12.867188c1.53125 1.859374 2.160156 4.199218 1.765625 6.578124-.394531 2.378907-1.746094 4.386719-3.800781 5.652344l-27.445313 16.933594c-2.0625 1.273438-4.472656 1.554688-6.769531.855469-2.296875-.714844-4.105469-2.320313-5.085938-4.535157l-7.503906-16.953124c-1.421875-3.199219-5.007812-4.804688-8.359375-3.726563-9.121094 2.976563-18.394531 5.152344-27.539063 6.453125-3.722656.53125-6.3125 3.964844-5.808593 7.683594l1.6875 12.347656c.332031 2.394531-.359375 4.714844-1.949219 6.527344-1.585938 1.816406-3.785156 2.820312-6.199219 2.820312h-32.257812c-2.414063 0-4.613281-1.003906-6.203125-2.820312-1.585938-1.8125-2.277344-4.132813-1.945313-6.527344l1.847657-13.507812c.492187-3.625-1.957032-6.992188-5.554688-7.644532-8.898438-1.605468-17.464844-3.878906-25.445312-6.738281-.761719-.273437-1.539063-.402344-2.308594-.402344-2.339844 0-4.59375 1.214844-5.855469 3.3125l-12.671875 21.121094c-1.242188 2.066406-3.234375 3.441406-5.613281 3.867187-2.386719.398438-4.722657-.171874-6.601563-1.679687l-25.152344-20.199219c-1.878906-1.511718-2.964843-3.671875-3.066406-6.078125-.101562-2.414062.816406-4.65625 2.566406-6.3125l12.726563-12.046875c1.328125-1.261718 2.09375-2.996094 2.132813-4.828125.035156-1.828125-.660157-3.59375-1.9375-4.898437-13.628907-13.976563-20.835938-30.1875-20.835938-46.902344 0-47.804688 59.316406-126.898438 126.902344-126.898438 42.105468 0 119.863281 52.335938 119.863281 126.898438.003906 17.773438-8.15625 34.878906-23.59375 49.480469zm0 0"/><path d="m385.121094 377.222656 5.234375-5.234375c2.664062-2.664062 2.664062-6.988281 0-9.652343-2.664063-2.667969-6.988281-2.667969-9.652344 0l-5.238281 5.234374-5.234375-5.234374c-2.664063-2.667969-6.988281-2.667969-9.652344 0-2.667969 2.664062-2.667969 6.988281 0 9.652343l5.234375 5.234375-5.234375 5.230469c-2.667969 2.667969-2.667969 6.988281 0 9.652344 1.332031 1.335937 3.078125 2 4.824219 2s3.496094-.664063 4.828125-2l5.234375-5.234375 5.238281 5.234375c1.332031 1.335937 3.078125 2 4.824219 2s3.496094-.664063 4.828125-2c2.664062-2.664063 2.664062-6.984375 0-9.652344zm0 0"/><path d="m128.496094 203.09375c-10.074219 0-19.535156 4.226562-25.960938 11.601562-12.019531 13.777344-19.28125 29.066407-21.566406 45.425782-1.628906 11.613281 1.765625 23.472656 9.304688 32.527344 7.632812 9.171874 18.839843 14.734374 31.152343 15.273437.472657.039063.949219.066406 1.433594.066406 23.269531 0 42.203125-18.933593 42.203125-42.203125v-26.710937c0-9.351563-3.613281-18.234375-10.167969-24.996094-6.867187-7.085937-16.058593-10.984375-26.398437-10.984375zm-27.726563 80.820312c-5.160156-6.191406-7.386719-13.972656-6.28125-21.898437 1.914063-13.695313 8.085938-26.59375 18.339844-38.347656 3.832031-4.402344 9.539063-6.921875 16.179687-6.921875 6.097657 0 11.804688 2.425781 16.085938 6.839844 3.835938 3.957031 6.019531 9.070312 6.265625 14.484374-2.625-.71875-5.332031-1.101562-8.078125-1.101562-18.671875 0-33.859375 16.925781-33.859375 37.722656 0 6.398438 1.453125 12.5625 4.117187 18-4.925781-1.695312-9.371093-4.695312-12.769531-8.777344zm29.691407 9.289063c-4.664063-4.558594-7.382813-11.269531-7.382813-18.507813 0-13.273437 9.0625-24.074218 20.203125-24.074218 2.8125 0 5.570312.710937 8.128906 2.066406v13.101562c0 13.027344-8.78125 24.015626-20.949218 27.414063zm0 0"/><path d="m242.523438 203.09375c-9.828126 0-19.023438 3.898438-25.886719 10.988281-6.554688 6.757813-10.167969 15.640625-10.167969 24.992188v26.714843c0 23.265626 18.933594 42.199219 42.199219 42.199219.488281 0 .960937-.027343 1.847656-.09375 11.902344-.511719 23.105469-6.074219 30.742187-15.246093 7.539063-9.054688 10.933594-20.914063 9.304688-32.527344-2.285156-16.359375-9.546875-31.648438-21.566406-45.425782-6.425782-7.375-15.886719-11.601562-26.472656-11.601562zm-22.402344 62.695312v-13.101562c2.558594-1.355469 5.320312-2.066406 8.128906-2.066406 11.140625 0 20.207031 10.800781 20.207031 24.074218 0 7.269532-2.742187 14.007813-7.441406 18.566407-12.03125-3.355469-20.894531-14.390625-20.894531-27.472657zm50.640625 18.125c-3.402344 4.085938-7.851563 7.085938-12.773438 8.78125 2.664063-5.4375 4.121094-11.605468 4.121094-18 0-20.800781-15.183594-37.726562-33.859375-37.726562-2.75 0-5.453125.382812-8.078125 1.101562.242187-5.414062 2.429687-10.527343 6.265625-14.480468 4.28125-4.414063 9.988281-6.839844 16.601562-6.839844 6.125 0 11.832032 2.519531 15.664063 6.917969 10.253906 11.753906 16.429687 24.652343 18.339844 38.347656 1.105469 7.925781-1.121094 15.707031-6.28125 21.898437zm0 0"/></svg>