<svg id="Capa_1" enable-background="new 0 0 512 512" height="512" viewBox="0 0 512 512" width="512" xmlns="http://www.w3.org/2000/svg"><g>
<path d="m180.064 115.203c11.34-9.79 12.601-26.979 2.812-38.319-4.742-5.493-11.339-8.811-18.577-9.341-.678-.05-1.356-.075-2.029-.075-6.51 0-12.734 2.308-17.712 6.605-5.493 4.742-8.811 11.34-9.342 18.577s1.788 14.248 6.53 19.741c4.743 5.493 11.34 8.811 18.577 9.342 7.242.532 14.248-1.788 19.741-6.53z"/>
<path d="m171.13 188.163h169.74c-7.123-40.403-42.455-71.203-84.87-71.203s-77.747 30.799-84.87 71.203z"/>
<path d="m425.797 474.531h-358.328v37.469h358.328c10.33 0 18.734-8.404 18.734-18.734s-8.404-18.735-18.734-18.735z"/>
<path d="m367.443 74.073c-5.493-4.743-12.509-7.061-19.742-6.531-7.238.531-13.835 3.849-18.578 9.342-9.789 11.339-8.528 28.529 2.812 38.318 5.494 4.743 12.501 7.063 19.742 6.531 7.237-.531 13.834-3.849 18.577-9.342 4.742-5.493 7.061-12.504 6.53-19.741s-3.848-13.835-9.341-18.577z"/>
<path d="m444.531 448.276v-429.542c0-10.33-8.404-18.734-18.734-18.734h-358.328v444.531h358.328c6.634 0 12.964 1.333 18.734 3.745zm-51.569-316.28c-8.673 10.047-20.298 16.629-33.19 18.915 7.946 15.717 12.431 33.47 12.431 52.252v205.767h-30v-127.927c-21.28 23.544-52.043 38.363-86.203 
38.363s-64.923-14.819-86.203-38.363v127.927h-30v-205.767c0-18.782 4.485-36.535 12.431-52.252-12.893-2.285-24.517-8.868-33.19-18.915-9.979-11.559-14.859-26.312-13.742-41.541s8.098-29.112 19.657-39.09c23.861-20.599 60.032-17.945 80.631 5.916 8.903 10.313 13.453 22.924 13.834 35.584 
11.508-3.826 23.806-5.905 36.582-5.905s25.074 2.078 36.582 5.905c.381-12.66 4.931-25.272 13.834-35.584 20.6-23.861 56.771-26.516 80.632-5.916 11.559 9.978 18.54 23.861 19.657 39.09s-3.764 29.982-13.743 41.541z"/>
<path d="m171.13 218.163c7.123 40.403 42.455 71.203 84.87 71.203s77.747-30.8 84.87-71.203z"/></g></svg>