<svg height="512pt" viewBox="-101 0 512 512" width="512pt" xmlns="http://www.w3.org/2000/svg">
<path d="m9.144531 146.285156c-5.050781 0-9.144531 4.09375-9.144531 9.144532v36.570312c0 5.050781 4.09375 9.144531 9.144531 9.144531h9.140625v237.710938h292.570313v-365.710938h-301.710938c-5.050781 0-9.144531 4.089844-9.144531 9.140625v36.570313c0 5.050781 4.09375 9.144531 9.144531 9.144531h9.140625v18.285156zm280.746094-6.464844c3.570313 3.570313 3.570313 9.359376 0 12.929688l-9.140625 9.140625c-3.585938 3.46875-9.289062 3.417969-12.816406-.109375s-3.578125-9.230469-.113282-12.816406l9.144532-9.144532c3.570312-3.566406 
9.359375-3.566406 12.925781 0zm-42.054687-15.90625 9.140624-18.285156c2.257813-4.519531 7.753907-6.355468 12.269532-4.097656 4.519531 2.257812 6.355468 7.75 4.097656 12.269531l-9.144531 18.285157c-2.253907 4.519531-7.75 6.355468-12.269531 
4.097656-4.515626-2.257813-6.351563-7.75-4.09375-12.269532zm-187.921876-22.382812c2.167969-1.085938 4.679688-1.261719 6.984376-.496094 2.300781.769532 4.203124 2.421875 5.285156 4.59375l9.140625 18.285156c2.257812 4.519532.425781 10.011719-4.09375 12.269532-4.519531 2.257812-10.011719.421875-12.269531-4.097656l-9.144532-18.285157c-1.085937-2.167969-1.261718-4.683593-.492187-6.984375.765625-2.300781 2.417969-4.203125 4.589843-5.285156zm-20.664062 38.289062c3.570312-3.566406 9.359375-3.566406 
12.929688 0l9.140624 9.144532c2.378907 2.296875 3.332032 5.695312 2.492188 8.890625-.835938 3.195312-3.332031 5.695312-6.527344 6.53125-3.195312.835937-6.597656-.117188-8.890625-2.496094l-9.144531-9.140625c-3.570312-3.570312-3.570312-9.359375 0-12.929688zm125.320312-2.675781c70.695313 0 128 57.304688 128 128 0 70.691407-57.304687 128-128 128-70.691406 0-128-57.308593-128-128 .078126-70.664062 57.339844-127.925781 128-128zm0 0"/>
<path d="m283.429688 512c15.148437 0 27.425781-12.28125 27.425781-27.429688v-27.425781h-109.949219c12.503906 16.144531 12.503906 38.707031 0 54.855469zm0 0"/>
<path d="m119.769531 256c0-.164062.113281-.3125.148438-.476562.5625-2.601563 1.355469-5.152344 2.367187-7.613282.355469-.871094.832032-1.664062 1.242188-2.507812.785156-1.679688 1.671875-3.308594 2.652344-4.882813.585937-.914062 1.246093-1.726562 1.894531-2.585937 1-1.371094 2.082031-2.683594 3.234375-3.929688.769531-.816406 1.566406-1.574218 2.386718-2.332031 1.226563-1.132813 2.515626-2.195313 
3.859376-3.183594.914062-.667969 1.828124-1.304687 2.742187-1.910156 1.457031-.902344 2.964844-1.71875 4.515625-2.449219.96875-.476562 1.921875-.96875 2.925781-1.371094 1.777344-.675781 3.59375-1.238281 5.441407-1.691406.914062-.238281 1.773437-.550781 2.742187-.734375 5.730469-1.167969 11.640625-1.167969 17.371094 0 .914062.183594 1.828125.496094 2.742187.734375 1.847656.453125 3.664063 1.015625 5.441406 1.691406 1.003907.402344 1.957032.914063 2.925782 1.371094 
1.550781.730469 3.058594 1.546875 4.515625 2.449219.914062.605469 1.828125 1.242187 2.742187 1.910156 1.347656.988281 2.632813 2.050781 3.859375 3.183594.824219.757813 1.617188 1.515625 2.386719 2.332031 1.152344 1.246094 2.234375 2.558594 3.238281 3.929688.648438.859375 1.304688 1.683594 1.890625 2.585937.980469 1.574219 1.867188 3.203125 2.652344 4.882813.410156.84375.914062 1.636718 1.242188 2.507812 1.011718 2.460938 1.804687 5.011719 2.367187 7.613282 0 .164062.109375.3125.148437.476562h64.539063c-4.769531-56.839844-52.292969-100.542969-109.332031-100.542969-57.035156 0-104.5625 43.703125-109.328125 100.542969zm0 0"/>
<path d="m164.570312 237.714844c-15.148437 0-27.425781 12.28125-27.425781 27.429687 0 15.148438 12.277344 27.425781 27.425781 27.425781 15.148438 0 27.429688-12.277343 27.429688-27.425781 0-15.148437-12.28125-27.429687-27.429688-27.429687zm0 36.570312c-5.046874 0-9.140624-4.09375-9.140624-9.140625 0-5.050781 4.09375-9.144531 9.140624-9.144531 5.050782 0 9.144532 4.09375 9.144532 9.144531 0 5.046875-4.09375 9.140625-9.144532 9.140625zm0 0"/>
<path d="m192 484.570312c0 15.148438-12.28125 27.429688-27.429688 27.429688-15.148437 0-27.425781-12.28125-27.425781-27.429688 0-15.148437 12.277344-27.425781 27.425781-27.425781 15.148438 0 27.429688 12.277344 27.429688 27.425781zm0 0"/>
<path d="m18.285156 457.144531v27.425781c0 15.148438 12.28125 27.429688 27.429688 27.429688h82.523437c-12.503906-16.148438-12.503906-38.710938 0-54.855469zm0 0"/>
<path d="m310.855469 27.429688c0-15.148438-12.277344-27.429688-27.425781-27.429688h-237.714844c-15.148438 0-27.429688 12.28125-27.429688 27.429688v27.425781h292.570313zm-146.285157 9.140624c-5.046874 0-9.140624-4.09375-9.140624-9.140624 0-5.050782 4.09375-9.144532 9.140624-9.144532 5.050782 0 9.144532 4.09375 9.144532 9.144532 0 5.046874-4.09375 9.140624-9.144532 9.140624zm0 0"/>
<path d="m164.570312 374.855469c57.023438-.070313 104.511719-43.753907 109.332032-100.570313h-64.53125c0 .164063-.109375.3125-.144532.476563-.566406 2.601562-1.359374 5.152343-2.371093 7.617187-.355469.867188-.832031 1.664063-1.242188 2.503906-.78125 1.679688-1.667969 3.3125-2.652343 4.882813-.582032.914063-1.242188 1.726563-1.890626 2.59375-1.007812 1.367187-2.085937 2.675781-3.238281 3.925781-.765625.8125-1.5625 1.570313-2.386719 2.328125-1.222656 1.132813-2.511718 2.195313-3.855468 
3.183594-.914063.667969-1.828125 1.308594-2.742188 1.910156-1.460937.902344-2.96875 1.71875-4.519531 2.449219-.96875.476562-1.917969.96875-2.925781 1.371094-1.773438.675781-3.585938 1.238281-5.429688 1.691406-.914062.230469-1.773437.550781-2.742187.734375-5.730469 1.167969-11.640625 
1.167969-17.371094 0-.914063-.183594-1.828125-.503906-2.742187-.734375-1.84375-.453125-3.65625-1.015625-5.433594-1.691406-1.003906-.402344-1.957032-.914063-2.925782-1.371094-1.550781-.730469-3.058593-1.546875-4.515624-2.449219-.914063-.601562-1.828126-1.242187-2.742188-1.910156-1.34375-.988281-2.632812-2.050781-3.859375-3.183594-.824219-.757812-1.617187-1.515625-2.386719-2.328125-1.148437-1.25-2.230468-2.558594-3.234375-3.925781-.648437-.867187-1.308593-1.691406-1.894531-2.59375-.984375-1.570313-1.867188-3.203125-2.652344-4.882813-.410156-.839843-.914062-1.636718-1.242187-2.503906-1.011719-2.464844-1.804688-5.015625-2.367188-7.617187 
0-.164063-.109375-.3125-.148437-.476563h-64.472656c4.820312 56.816406 52.308593 100.5 109.328124 100.570313zm0 0"/></svg>